# xmcd CD database file
#
# Track frame offsets:
#	150
#	11612
#	23675
#	38437
#	53325
#	66900
#	81075
#	101925
#	114750
#	128400
#	141312
#	151337
#
# Disc length: 2215 seconds
#
# Revision: 4
# Processed by: cddbd v1.5.2PL0 Copyright (c) Steve Scherf et al.
# Submitted via: CDex 1.70beta1
#
DISCID=8808a50c
DTITLE=The Blue Ridge Rangers - Blue Ridge Rangers
DYEAR=1973
DGENRE=Country
TTITLE0=Blue Ridge Mountain Blues
TTITLE1=Somewhere listening for my name
TTITLE2=You're The Reason
TTITLE3=Jambalaya On The Bayou
TTITLE4=She Thinks I Still Care
TTITLE5=California Blues(Blue Yodel #4)
TTITLE6=Workin' On A Building
TTITLE7=Please Help Me I'm Falling
TTITLE8=Have Thine Own Way Lord
TTITLE9=I Ain't Never
TTITLE10=Hearts Of Stone
TTITLE11=Today I Started Loving You Again
EXTD=YEAR: 1973
EXTT0=
EXTT1=
EXTT2=
EXTT3=
EXTT4=
EXTT5=
EXTT6=
EXTT7=
EXTT8=
EXTT9=
EXTT10=
EXTT11=
PLAYORDER=
